# xmcd CD database file
#
# Track frame offsets:
#	150
#	10470
#	20665
#	33095
#	43872
#	54412
#	65642
#	83090
#	101220
#	114320
#	139425
#	153195
#	165967
#
# Disc length: 2514 seconds
#
# Revision: 4
# Processed by: cddbd v1.5.2PL0 Copyright (c) Steve Scherf et al.
# Submitted via: CDex 1.72
#
DISCID=a509d00d
DTITLE=Cash, Johnny (USA-94-American Recordings-cty) - American Recordings
DYEAR=1994
DGENRE=Country
TTITLE0=Delia's Gone
TTITLE1=Let The Train Blow The Whistle
TTITLE2=The Beast In Me
TTITLE3=Drive On
TTITLE4=Why Me Lord
TTITLE5=Thirteen
TTITLE6=Oh Bury Me Not
TTITLE7=Bird On A Wire
TTITLE8=Tennessee Stud
TTITLE9=Down There By The Train
TTITLE10=Redemption
TTITLE11=Like A Soldier
TTITLE12=The Man Who Couldn't Cry
EXTD=YEAR: 1994
EXTT0=
EXTT1=
EXTT2=
EXTT3=
EXTT4=
EXTT5=
EXTT6=
EXTT7=
EXTT8=
EXTT9=
EXTT10=
EXTT11=
EXTT12=
PLAYORDER=
